<svg id="Layer_1" data-name="Layer 1" xmlns="http://www.w3.org/2000/svg" viewBox="0 0 305.76 73.34"><defs><style>.cls-1{fill:#999999;}.cls-2{fill:#A30E3B;}</style></defs><path class="cls-1" d="M299.51,39.43A5.48,5.48,0,0,1,296.06,37q-1-1.72-1-5.77V27.64a7.5,7.5,0,0,0-.54-3.48,2.91,2.91,0,0,0-1.9-1.24c-.21,0-.53-.09-.95-.14q-2.1-.3-2.1-1.86a1.82,1.82,0,0,1,.51-1.4,2.17,2.17,0,0,1,1.54-.48q4.13,0,5.83,2.08t1.71,7.71v2.91c0,3.17,1.32,5,4,5.59l1.14.24a2.31,2.31,0,0,1,1.14.65,1.84,1.84,0,0,1,.35,1.21,2.07,2.07,0,0,1-.38,1.32,1.83,1.83,0,0,1-1.15.63l-.76.15q-4.31.82-4.3,5.66V50q0,5.67-1.68,7.72c-1.13,1.37-3.06,2-5.81,2a2.28,2.28,0,0,1-1.58-.48,1.81,1.81,0,0,1-.52-1.42c0-1,.7-1.66,2.1-1.86a5.23,5.23,0,0,0,.63-.1,3.12,3.12,0,0,0,2.17-1.12,7,7,0,0,0,.59-3.52V47.68c0-2.67.33-4.58,1-5.75A5.64,5.64,0,0,1,299.51,39.43Z"/><path class="cls-1" d="M270.13,47.24h8.1a2.14,2.14,0,0,1,1.41.4,1.66,1.66,0,0,1,.45,1.29,1.8,1.8,0,0,1-.43,1.38,2.44,2.44,0,0,1-1.57.37h-16a2,2,0,0,1-1.44-.44,1.65,1.65,0,0,1-.49-1.31,1.56,1.56,0,0,1,.5-1.27,2.37,2.37,0,0,1,1.55-.42h4.25V31.57h-1.66a6.84,6.84,0,0,1-2.95-.38,1.49,1.49,0,0,1-.59-1.37,1.61,1.61,0,0,1,.48-1.27,2.13,2.13,0,0,1,1.45-.43h5.56a1.69,1.69,0,0,1,1,.26.9.9,0,0,1,.34.75v4.15A16.78,16.78,0,0,1,275,29a10.81,10.81,0,0,1,5.42-1.42,6.4,6.4,0,0,1,3.52.87,2.63,2.63,0,0,1,1.34,2.26,2.2,2.2,0,0,1-.67,1.59,2,2,0,0,1-1.48.7,4.8,4.8,0,0,1-1.89-.75,5.06,5.06,0,0,0-2.38-.74,7.46,7.46,0,0,0-4,1.36,23,23,0,0,0-4.67,4.29Z"/><path class="cls-2" d="M154.2,5V7.79c0,1.15-.22,1.88-.67,2.18s-2.11,1.1-5,2.42A56.89,56.89,0,0,0,140.34,17a16.57,16.57,0,0,1,2.77-3.28q1.24-1.07,3.38-2.67a14.29,14.29,0,0,0-5.12-.73,34.11,34.11,0,0,0-11,2,42.31,42.31,0,0,0-10,4.79q-4.12,2.79-4.13,4.68a1.87,1.87,0,0,0,1.25,1.62,13.24,13.24,0,0,0,4,1c1.85.24,4.15.39,6.92.48s6.16.12,10.21.12a29.55,29.55,0,0,1,5.7.33,1.47,1.47,0,0,1,1.27,1.52,6,6,0,0,1-1.5,3.46,5.9,5.9,0,0,1-3.95,2.32q-3.83.62-6.07,1a44.6,44.6,0,0,0-5.36,1.46,50.23,50.23,0,0,0-6.87,3,38.75,38.75,0,0,0-8.77,6q-3.17,3-3.16,5.37a3.46,3.46,0,0,0,2.25,3.14,14.92,14.92,0,0,0,6.48,1.13q14.56,0,29.66-13.08a22.18,22.18,0,0,1-.88,7.07,14,14,0,0,1-3.92,5.85,26.11,26.11,0,0,1-7.2,4.47A54.75,54.75,0,0,1,126,61.44a47.39,47.39,0,0,1-10.52,1.27A15.62,15.62,0,0,1,106.05,60a8.54,8.54,0,0,1-3.73-7.24,13.33,13.33,0,0,1,1.8-6.53A21.59,21.59,0,0,1,109.66,40a40.45,40.45,0,0,1,9.45-5.39A63.81,63.81,0,0,1,132.3,30.8c.71-.13,1.07-.35,1.07-.65s-.42-.53-1.25-.6-2.37-.11-4.6-.14-4.19-.12-5.88-.29a29.06,29.06,0,0,1-5.38-1.07,8.26,8.26,0,0,1-4.49-3.15,8.59,8.59,0,0,1-1.58-5,12.16,12.16,0,0,1,2.55-7.09,24.26,24.26,0,0,1,7.17-6.44,41.39,41.39,0,0,1,11.22-4.62A56.37,56.37,0,0,1,145.55,0a26.13,26.13,0,0,1,6.29.51c1.19.34,1.88.8,2.08,1.36A11.39,11.39,0,0,1,154.2,5Z"/><path class="cls-2" d="M171.47,43.31v3q-8.57,11.35-13.94,11.36c-1.95,0-3.47-1.06-4.58-3.18a18,18,0,0,1-1.66-8.35,31.59,31.59,0,0,1,2-9.94,71.63,71.63,0,0,1,5.27-11.69,73.29,73.29,0,0,1,6.85-10.34A25.45,25.45,0,0,1,172,8a4.25,4.25,0,0,1,1.93-.74,1.12,1.12,0,0,1,1.15.76,8.21,8.21,0,0,1,.29,2.6q0,5.7-4.64,14a84.53,84.53,0,0,1-12.92,17,19.14,19.14,0,0,0-.41,3.28,7.42,7.42,0,0,0,1.13,4.27,3.61,3.61,0,0,0,3.14,1.64,4.05,4.05,0,0,0,2.21-.8,22.12,22.12,0,0,0,2.5-2C167.22,47.24,168.93,45.66,171.47,43.31Zm-12.26-7.38a40.89,40.89,0,0,0,4.12-4.76,58.47,58.47,0,0,0,3.75-5.7A46.14,46.14,0,0,0,169.85,20a10.75,10.75,0,0,0,1-3.65c0-.63-.22-1-.66-1a2.38,2.38,0,0,0-.94.45q-2.5,2.05-5.62,8A47.5,47.5,0,0,0,159.21,35.93Z"/><path class="cls-2" d="M197.47,43.68v2.75a21.8,21.8,0,0,1-4.34,3.28,9.62,9.62,0,0,1-4.72.66c-3.55,4.21-6.69,6.31-9.39,6.31a6.54,6.54,0,0,1-4.19-1.51,10.65,10.65,0,0,1-3-4.15,14.72,14.72,0,0,1-1.13-5.86,12.44,12.44,0,0,1,1.74-5.83,26.14,26.14,0,0,1,4.52-6,25.21,25.21,0,0,1,5.92-4.47,12.45,12.45,0,0,1,5.87-1.71,6.39,6.39,0,0,1,3,.6,1.82,1.82,0,0,1,1.11,1.66,3.07,3.07,0,0,1-.94,1.89,3.5,3.5,0,0,1,2.13,1.08,4.86,4.86,0,0,1,.57,2.77,17.33,17.33,0,0,1-.92,5,24.32,24.32,0,0,1-2.52,5.62l.74.74h.61a2.89,2.89,0,0,0,1.38-.35,8.28,8.28,0,0,0,1.21-.74C195.49,45.17,196.27,44.58,197.47,43.68ZM189,32.89c-2.27,1.37-4.22,2.61-5.83,3.72A28.05,28.05,0,0,0,179.1,40a9.18,9.18,0,0,0-2.26,3.42c-.68,3.07-1,4.72-1,5q0,2.7,3.77,2.7,1.77,0,5.91-3a10.77,10.77,0,0,1-.7-3.69,14.25,14.25,0,0,1,1.07-5.27A43.33,43.33,0,0,1,189,32.89Z"/><path class="cls-2" d="M196.9,47.21V44.34q5.74-6.24,9.91-11.73l6.58-8.74a21.79,21.79,0,0,1,4.26-4.57A7.72,7.72,0,0,1,222.29,18c.93,0,1.39.36,1.39,1.07a5.33,5.33,0,0,1-1.12,2.54,23.39,23.39,0,0,1-2.9,3.45,33.87,33.87,0,0,0-4.57,5.76q-2.24,3.47-5.06,8.84,2.21-1.73,5.1-4.08t4.72-3.69a18.87,18.87,0,0,1,3.61-2.11,8.87,8.87,0,0,1,3.59-.78,1.94,1.94,0,0,1,1.49.41,2.53,2.53,0,0,1,.35,1.6,13.28,13.28,0,0,1-1.51,6.09A30.82,30.82,0,0,1,223,43.23a91.55,91.55,0,0,1-7,7,8.38,8.38,0,0,0,3,.54q4.76,0,12.75-7.26v3q-3.1,2.79-6.09,5.25a39.07,39.07,0,0,1-5.6,3.94,10,10,0,0,1-4.84,1.47,9.18,9.18,0,0,1-1.74-.18,12.72,12.72,0,0,1-1.7-.45c-.52-.18-1.19-.43-2-.76s-1.45-.56-1.89-.7a13.85,13.85,0,0,1-1.47.33,6.82,6.82,0,0,1-3.37-1.15,73.13,73.13,0,0,0-3,6.79q-1.62,4.16-2.73,6.62a21.17,21.17,0,0,1-2.95,4.72c-.68.68-1.16,1-1.44,1-1.17,0-1.76-1-1.76-3.12a16,16,0,0,1,1.09-5.64A32.68,32.68,0,0,1,195,59q1.58-2.62,3.47-5.31c1.26-1.79,2.14-3.12,2.66-4q6.48-11.16,10.09-19Q201.74,42.21,196.9,47.21Zm16.65,2a55.43,55.43,0,0,0,6-7.26q2-3,2-4.59a1.34,1.34,0,0,0-1.52-1.52q-2,0-5.76,3.38a53.2,53.2,0,0,0-7.65,9.13,24.27,24.27,0,0,1,4.06-.23A8.18,8.18,0,0,1,213.55,49.22Z"/><path class="cls-2" d="M238,45.24v1A5.53,5.53,0,0,0,239.23,50a4,4,0,0,0,3.12,1.35,10.33,10.33,0,0,0,4.16-.94,22.85,22.85,0,0,0,4.28-2.5c1.43-1,3.16-2.44,5.21-4.19v2.51a51.38,51.38,0,0,1-8.69,8.55,13.88,13.88,0,0,1-8.25,3A6.85,6.85,0,0,1,233.28,55a12.62,12.62,0,0,1-2.13-7.75,15.4,15.4,0,0,1,2-7.81A29.78,29.78,0,0,1,239.72,32a25.53,25.53,0,0,1,6.19-4,14,14,0,0,1,5.5-1.35,4.84,4.84,0,0,1,3.06.88,3.16,3.16,0,0,1,1.12,2.65,8.52,8.52,0,0,1-1.92,5.14,22.28,22.28,0,0,1-5.89,5.09A60.8,60.8,0,0,1,238,45.24Zm.41-2.67A23.24,23.24,0,0,0,244.77,39a18.19,18.19,0,0,0,3.87-4.09,6.26,6.26,0,0,0,1.25-2.85c0-.62-.28-.94-.86-.94a6,6,0,0,0-2.4.94,19.19,19.19,0,0,0-3.36,2.47,18.32,18.32,0,0,0-3.06,3.56A11.54,11.54,0,0,0,238.45,42.57Z"/><path class="cls-1" d="M40.87,50.68a.89.89,0,0,1-.72-.25,1.65,1.65,0,0,1-.21-1v-2a10,10,0,0,1-3.66,2.84,11.17,11.17,0,0,1-4.76,1A10.22,10.22,0,0,1,23.79,48a11.43,11.43,0,0,1-3.11-8.17A11.45,11.45,0,0,1,24,31.43a11.18,11.18,0,0,1,8.27-3.35,10.89,10.89,0,0,1,4.52.89,9.35,9.35,0,0,1,3.44,2.62V22.24H38.94a6.16,6.16,0,0,1-2.75-.38,1.49,1.49,0,0,1-.62-1.38,1.66,1.66,0,0,1,.5-1.31,2.1,2.1,0,0,1,1.45-.44h5a1.82,1.82,0,0,1,1.06.24.87.87,0,0,1,.33.76V47.24H45a3,3,0,0,1,1.73.4,1.51,1.51,0,0,1,.54,1.29,1.78,1.78,0,0,1-.46,1.29,1.69,1.69,0,0,1-1.25.46Zm-16-11a7.41,7.41,0,0,0,2.17,5.52,7.54,7.54,0,0,0,5.52,2.15,7.41,7.41,0,0,0,5.54-2.24,7.79,7.79,0,0,0,2.17-5.67,7.64,7.64,0,0,0-2.16-5.59,7.43,7.43,0,0,0-5.55-2.2A7.36,7.36,0,0,0,27,33.91,8,8,0,0,0,24.88,39.72Z"/><path class="cls-1" d="M55.27,40.48a7.48,7.48,0,0,0,2.38,5.45,8.74,8.74,0,0,0,6,1.92,15.32,15.32,0,0,0,6.23-1.52,16.77,16.77,0,0,1,4.07-1.53,1.72,1.72,0,0,1,1.23.46,1.55,1.55,0,0,1,.48,1.15,1.92,1.92,0,0,1-.51,1.29,5.52,5.52,0,0,1-1.63,1.15,25,25,0,0,1-5,1.81,21.81,21.81,0,0,1-5.16.63,12.33,12.33,0,0,1-8.91-3.21A11.24,11.24,0,0,1,51,39.58a11.49,11.49,0,0,1,3.54-8.75,12.94,12.94,0,0,1,9.23-3.34,12.1,12.1,0,0,1,8.55,3.13,9.9,9.9,0,0,1,3.39,7.56A2.27,2.27,0,0,1,75.16,40c-.39.31-1.42.47-3.12.47H55.27Zm.12-3.2h15.9a7.17,7.17,0,0,0-2.43-4.68,7.58,7.58,0,0,0-5.07-1.77,8.73,8.73,0,0,0-5.47,1.71A8.12,8.12,0,0,0,55.39,37.28Z"/><path class="cls-1" d="M82.35,31.57a4.37,4.37,0,0,1-2.21-.39,1.49,1.49,0,0,1-.6-1.36A1.58,1.58,0,0,1,80,28.55a2.17,2.17,0,0,1,1.46-.43h6.84a3.11,3.11,0,0,1,1.85.38,1.61,1.61,0,0,1,.47,1.32A1.5,1.5,0,0,1,90,31.18a4.55,4.55,0,0,1-2.25.39h-.9l6.35,15.82,7.05-15.82H98.83a5.74,5.74,0,0,1-2.54-.38,1.44,1.44,0,0,1-.66-1.37,1.61,1.61,0,0,1,.46-1.32A3.17,3.17,0,0,1,98,28.12h7.54a2.22,2.22,0,0,1,1.47.43,1.61,1.61,0,0,1,.49,1.27,1.49,1.49,0,0,1-.6,1.36,4.39,4.39,0,0,1-2.21.39h-.44L96.14,49.39a4.18,4.18,0,0,1-1.21,1.74,3.11,3.11,0,0,1-1.74.41,2.91,2.91,0,0,1-1.63-.39,4.34,4.34,0,0,1-1.18-1.76Z"/><path class="cls-1" d="M6.25,39.43a5.58,5.58,0,0,1,3.42,2.48c.65,1.14,1,3.07,1,5.77v3.61a7.13,7.13,0,0,0,.54,3.4,3,3,0,0,0,2,1.19c.22,0,.52.1.91.15,1.43.2,2.15.86,2.15,2a1.58,1.58,0,0,1-.57,1.3,2.4,2.4,0,0,1-1.58.46q-4.12,0-5.81-2T6.54,50V47.19a7.59,7.59,0,0,0-.8-4c-.54-.79-1.86-1.36-4-1.72a2.27,2.27,0,0,1-1.36-.6A2,2,0,0,1,0,39.43a1.92,1.92,0,0,1,.34-1.22,2,2,0,0,1,1.1-.64l1.05-.24q4.05-.86,4.05-5.59V28.83q0-5.64,1.71-7.71T14.09,19a2.3,2.3,0,0,1,1.55.48,1.66,1.66,0,0,1,.55,1.31c0,1.12-.72,1.77-2.15,2l-.66.1a3.07,3.07,0,0,0-2.14,1.2,7.18,7.18,0,0,0-.6,3.56v3.59q0,4.06-1,5.78A5.44,5.44,0,0,1,6.25,39.43Z"/></svg>
