<svg id="Layer_1" data-name="Layer 1" xmlns="http://www.w3.org/2000/svg" viewBox="0 0 96.01 79.6"><defs><style>.cls-1{fill:#999999;}.cls-2{fill:#FF00FF;}</style></defs><path class="cls-1" d="M89.76,49.21a5.48,5.48,0,0,1-3.45-2.43c-.66-1.14-1-3.07-1-5.77V37.42a7.55,7.55,0,0,0-.54-3.48,2.93,2.93,0,0,0-1.9-1.23,9.46,9.46,0,0,0-1-.15c-1.4-.19-2.1-.81-2.1-1.85a1.85,1.85,0,0,1,.52-1.41,2.22,2.22,0,0,1,1.54-.47q4.13,0,5.83,2.07t1.71,7.72v2.9q0,4.77,4,5.59c.51.1.89.18,1.15.25a2.17,2.17,0,0,1,1.14.65,1.85,1.85,0,0,1,.35,1.2,2.09,2.09,0,0,1-.38,1.32,1.82,1.82,0,0,1-1.16.64l-.75.14c-2.87.56-4.3,2.44-4.3,5.67v2.83q0,5.67-1.69,7.71t-5.81,2.06a2.25,2.25,0,0,1-1.57-.48,1.83,1.83,0,0,1-.53-1.43c0-1,.7-1.66,2.1-1.85l.64-.1a3.12,3.12,0,0,0,2.17-1.13,7,7,0,0,0,.59-3.51V57.47q0-4,1-5.75A5.65,5.65,0,0,1,89.76,49.21Z"/><path class="cls-2" d="M75.88,28.79A30,30,0,0,0,71.8,17.6a24.31,24.31,0,0,0-6.44-7.18,12.17,12.17,0,0,0-7.1-2.54,8.52,8.52,0,0,0-5,1.57A8.3,8.3,0,0,0,50.1,14,29.64,29.64,0,0,0,49,19.32c-.16,1.69-.26,3.65-.28,5.88s-.08,3.76-.15,4.6-.26,1.25-.59,1.25-.52-.36-.66-1.07A64.16,64.16,0,0,0,43.54,16.8a40.69,40.69,0,0,0-5.39-9.46A21.75,21.75,0,0,0,31.93,1.8,13.3,13.3,0,0,0,25.41,0a8.53,8.53,0,0,0-7.24,3.73,15.59,15.59,0,0,0-2.73,9.44,48.13,48.13,0,0,0,1.27,10.52A54.89,54.89,0,0,0,20.12,34,38.93,38.93,0,0,0,22,37.75S36.89,61,39.87,65.32a110.08,110.08,0,0,0,6.68,9.06,12.73,12.73,0,0,0,5.16,3.5,32.84,32.84,0,0,0,9.84,1.72,75.89,75.89,0,0,0,9.68-15.49C76.46,53.12,77.16,36.74,75.88,28.79ZM66.19,53.6a88.11,88.11,0,0,1-3.36,10.15c-1.07,2.62-5.32,8.11-6.76,10.47-1.34-2-7.88-10.62-19.33-28.21-9-13.79-12.31-19.94-12.31-29.64a15,15,0,0,1,1.12-6.49,3.47,3.47,0,0,1,3.14-2.25q2.34,0,5.37,3.16a38.43,38.43,0,0,1,6,8.77,50.4,50.4,0,0,1,3,6.87,44.35,44.35,0,0,1,1.45,5.36q.43,2.25,1,6.07a5.93,5.93,0,0,0,2.31,4,6,6,0,0,0,3.47,1.49A1.47,1.47,0,0,0,52.81,42a29.55,29.55,0,0,0,.33-5.7q0-6.08.12-10.21t.47-6.91a12.75,12.75,0,0,1,1-4A1.85,1.85,0,0,1,56.34,14q1.88,0,4.67,4.12a42,42,0,0,1,4.8,10,34.05,34.05,0,0,1,2,11c0,.63,0,1.88,0,3.35-.06,1-.14,1.9-.25,2.81A57.84,57.84,0,0,1,66.19,53.6Z"/><path class="cls-1" d="M6.25,50a5.58,5.58,0,0,1,3.42,2.48c.65,1.14,1,3.07,1,5.77v3.61a7.16,7.16,0,0,0,.54,3.4,3,3,0,0,0,2,1.19c.22,0,.52.1.91.15,1.43.19,2.15.86,2.15,2a1.57,1.57,0,0,1-.57,1.29,2.4,2.4,0,0,1-1.58.47c-2.75,0-4.69-.69-5.81-2s-1.69-3.94-1.69-7.72V57.74a7.59,7.59,0,0,0-.8-4c-.54-.79-1.86-1.36-4-1.72a2.27,2.27,0,0,1-1.36-.6A2,2,0,0,1,0,50a1.92,1.92,0,0,1,.34-1.22,2,2,0,0,1,1.1-.64l1.05-.24c2.7-.57,4.05-2.44,4.05-5.59V39.38q0-5.64,1.71-7.71t5.84-2.08a2.3,2.3,0,0,1,1.55.48,1.64,1.64,0,0,1,.55,1.3c0,1.13-.72,1.78-2.15,2a6.2,6.2,0,0,1-.66.09,3.11,3.11,0,0,0-2.14,1.21,7.18,7.18,0,0,0-.6,3.56v3.58q0,4.08-1,5.79A5.44,5.44,0,0,1,6.25,50Z"/></svg>